<svg width="18" height="32" viewBox="0 0 18 32" fill="none" xmlns="http://www.w3.org/2000/svg">
<g clip-path="url(#clip0_3149_1245)">
<path fill-rule="evenodd" clip-rule="evenodd" d="M9.75004 8.5C9.75004 8.08579 10.0858 7.75 10.5 7.75H12C12.4142 7.75 12.75 8.08579 12.75 8.5C12.75 8.91421 12.4142 9.25 12 9.25H10.5C10.0858 9.25 9.75004 8.91421 9.75004 8.5ZM8.62493 8.49193C8.63055 8.90611 8.29934 9.24642 7.88516 9.25203C7.36476 9.25908 7.22959 9.29604 7.15951 9.33175C7.01839 9.40365 6.90365 9.51839 6.83175 9.65951C6.79604 9.72958 6.75908 9.86476 6.75203 10.3852C6.74642 10.7993 6.40611 11.1305 5.99194 11.1249C5.57776 11.1193 5.24655 10.779 5.25217 10.3648C5.25884 9.87266 5.2805 9.39996 5.49524 8.97852C5.71095 8.55516 6.05516 8.21095 6.47852 7.99524C6.89996 7.7805 7.37266 7.75884 7.86484 7.75217C8.27901 7.74655 8.61932 8.07776 8.62493 8.49193ZM13.8751 8.49193C13.8807 8.07776 14.221 7.74655 14.6352 7.75217C15.1273 7.75884 15.6 7.7805 16.0215 7.99524C16.4448 8.21095 16.7891 8.55516 17.0048 8.97852C17.2195 9.39996 17.2412 9.87266 17.2478 10.3648C17.2534 10.779 16.9222 11.1193 16.5081 11.1249C16.0939 11.1305 15.7536 10.7993 15.748 10.3852C15.7409 9.86476 15.704 9.72958 15.6683 9.65951C15.5963 9.51838 15.4816 9.40365 15.3405 9.33174C15.2704 9.29604 15.1352 9.25908 14.6148 9.25203C14.2007 9.24642 13.8695 8.90611 13.8751 8.49193ZM16.5 12.25C16.9142 12.25 17.25 12.5858 17.25 13V14.5C17.25 14.9142 16.9142 15.25 16.5 15.25C16.0858 15.25 15.75 14.9142 15.75 14.5V13C15.75 12.5858 16.0858 12.25 16.5 12.25ZM3.87109 12.25H9.62891C10.0243 12.25 10.3653 12.25 10.6463 12.2729C10.9428 12.2972 11.2377 12.3506 11.5215 12.4952C11.9448 12.711 12.2891 13.0552 12.5048 13.4785C12.6494 13.7623 12.7028 14.0572 12.7271 14.3537C12.75 14.6347 12.75 14.9757 12.75 15.3711V21.1289C12.75 21.5243 12.75 21.8653 12.7271 22.1463C12.7028 22.4428 12.6494 22.7377 12.5048 23.0215C12.2891 23.4448 11.9448 23.7891 11.5215 24.0048C11.2377 24.1494 10.9428 24.2028 10.6463 24.2271C10.3653 24.25 10.0243 24.25 9.62893 24.25H3.87108C3.47572 24.25 3.13466 24.25 2.85373 24.2271C2.55722 24.2028 2.26231 24.1494 1.97852 24.0048C1.55516 23.7891 1.21095 23.4448 0.995237 23.0215C0.850641 22.7377 0.797154 22.4428 0.772928 22.1463C0.749976 21.8653 0.749987 21.5243 0.750001 21.1289V15.3711C0.749987 14.9757 0.749976 14.6347 0.772928 14.3537C0.797154 14.0572 0.850641 13.7623 0.995237 13.4785C1.21095 13.0552 1.55516 12.711 1.97852 12.4952C2.26231 12.3506 2.55722 12.2972 2.85373 12.2729C3.13466 12.25 3.47573 12.25 3.87109 12.25ZM2.97588 13.7679C2.77213 13.7846 2.69659 13.8129 2.65951 13.8317C2.51839 13.9037 2.40365 14.0184 2.33175 14.1595C2.31285 14.1966 2.28459 14.2721 2.26795 14.4759C2.25058 14.6884 2.25 14.9676 2.25 15.4V21.1C2.25 21.5324 2.25058 21.8116 2.26795 22.0241C2.28459 22.2279 2.31285 22.3034 2.33175 22.3405C2.40365 22.4816 2.51839 22.5963 2.65951 22.6683C2.69659 22.6871 2.77213 22.7154 2.97588 22.7321C3.18838 22.7494 3.46759 22.75 3.9 22.75H9.6C10.0324 22.75 10.3116 22.7494 10.5241 22.7321C10.7279 22.7154 10.8034 22.6871 10.8405 22.6683C10.9816 22.5963 11.0964 22.4816 11.1683 22.3405C11.1872 22.3034 11.2154 22.2279 11.2321 22.0241C11.2494 21.8116 11.25 21.5324 11.25 21.1V15.4C11.25 14.9676 11.2494 14.6884 11.2321 14.4759C11.2154 14.2721 11.1872 14.1966 11.1683 14.1595C11.0964 14.0184 10.9816 13.9037 10.8405 13.8317C10.8034 13.8129 10.7279 13.7846 10.5241 13.7679C10.3116 13.7506 10.0324 13.75 9.6 13.75H3.9C3.46759 13.75 3.18838 13.7506 2.97588 13.7679ZM16.5081 16.3751C16.9222 16.3807 17.2534 16.721 17.2478 17.1352C17.2412 17.6273 17.2195 18.1 17.0048 18.5215C16.7891 18.9448 16.4448 19.289 16.0215 19.5048C15.6 19.7195 15.1273 19.7412 14.6352 19.7478C14.221 19.7534 13.8807 19.4222 13.8751 19.0081C13.8695 18.5939 14.2007 18.2536 14.6148 18.248C15.1352 18.2409 15.2704 18.204 15.3405 18.1683C15.4816 18.0963 15.5963 17.9816 15.6683 17.8405C15.704 17.7704 15.7409 17.6352 15.748 17.1148C15.7536 16.7007 16.0939 16.3694 16.5081 16.3751Z" fill="#0783BE"/>
</g>
<defs>
<clipPath id="clip0_3149_1245">
<rect width="18" height="18" fill="white" transform="translate(0 7)"/>
</clipPath>
</defs>
</svg>
