<svg width="22" height="20" viewBox="0 0 22 20" fill="none" xmlns="http://www.w3.org/2000/svg">
    <path fill-rule="evenodd" clip-rule="evenodd" d="M11.3012 0.833253H12.6988C13.1381 0.833238 13.5171 0.833225 13.8292 0.858728C14.1586 0.885645 14.4863 0.945075 14.8016 1.10574C15.2721 1.34542 15.6545 1.72787 15.8942 2.19828C16.0548 2.51359 16.1143 2.84128 16.1412 3.17073C16.1641 3.45054 16.1664 3.78406 16.1666 4.16659H19.5C19.9602 4.16659 20.3333 4.53968 20.3333 4.99992C20.3333 5.46016 19.9602 5.83325 19.5 5.83325H18.6667V14.3677C18.6667 15.0385 18.6667 15.5921 18.6298 16.0431C18.5916 16.5115 18.5094 16.9421 18.3034 17.3466C17.9838 17.9738 17.4738 18.4837 16.8466 18.8033C16.4422 19.0094 16.0116 19.0915 15.5432 19.1298C15.0922 19.1666 14.5386 19.1666 13.8678 19.1666H10.1322C9.46144 19.1666 8.90781 19.1666 8.45682 19.1298C7.9884 19.0915 7.55782 19.0094 7.15337 18.8033C6.52616 18.4837 6.01623 17.9738 5.69665 17.3466C5.49057 16.9421 5.40844 16.5115 5.37017 16.0431C5.33332 15.5921 5.33333 15.0385 5.33334 14.3677L5.33334 5.83325H4.50001C4.03977 5.83325 3.66667 5.46016 3.66667 4.99992C3.66667 4.53968 4.03977 4.16659 4.50001 4.16659H7.83336C7.83359 3.78406 7.83595 3.45054 7.85881 3.17073C7.88573 2.84128 7.94516 2.51359 8.10582 2.19828C8.34551 1.72787 8.72796 1.34542 9.19836 1.10574C9.51368 0.945075 9.84136 0.885645 10.1708 0.858728C10.483 0.833225 10.8619 0.833238 11.3012 0.833253ZM7.00001 5.83325V14.3333C7.00001 15.0471 7.00065 15.5323 7.0313 15.9074C7.06115 16.2727 7.11525 16.4596 7.18166 16.5899C7.34145 16.9035 7.59642 17.1585 7.91002 17.3183C8.04035 17.3847 8.22719 17.4388 8.59254 17.4686C8.96761 17.4993 9.45286 17.4999 10.1667 17.4999H13.8333C14.5472 17.4999 15.0324 17.4993 15.4075 17.4686C15.7728 17.4388 15.9597 17.3847 16.09 17.3183C16.4036 17.1585 16.6586 16.9035 16.8183 16.5899C16.8848 16.4596 16.9389 16.2727 16.9687 15.9074C16.9994 15.5323 17 15.0471 17 14.3333V5.83325H7.00001ZM14.4999 4.16659H9.50007C9.50043 3.779 9.50298 3.51407 9.51994 3.30645C9.53844 3.08006 9.56984 2.99613 9.59083 2.95493C9.67073 2.79813 9.79821 2.67064 9.95501 2.59075C9.99622 2.56975 10.0801 2.53836 10.3065 2.51986C10.5426 2.50057 10.8529 2.49992 11.3333 2.49992H12.6667C13.1471 2.49992 13.4574 2.50057 13.6935 2.51986C13.9199 2.53836 14.0038 2.56975 14.045 2.59075C14.2018 2.67064 14.3293 2.79813 14.4092 2.95493C14.4302 2.99613 14.4616 3.08006 14.4801 3.30645C14.497 3.51407 14.4996 3.779 14.4999 4.16659ZM10.3333 8.74992C10.7936 8.74992 11.1667 9.12302 11.1667 9.58325V13.7499C11.1667 14.2102 10.7936 14.5833 10.3333 14.5833C9.8731 14.5833 9.50001 14.2102 9.50001 13.7499V9.58325C9.50001 9.12302 9.8731 8.74992 10.3333 8.74992ZM13.6667 8.74992C14.1269 8.74992 14.5 9.12302 14.5 9.58325V13.7499C14.5 14.2102 14.1269 14.5833 13.6667 14.5833C13.2064 14.5833 12.8333 14.2102 12.8333 13.7499V9.58325C12.8333 9.12302 13.2064 8.74992 13.6667 8.74992Z" fill="#D13737"/>
</svg>
