<svg width="14" height="18" viewBox="0 0 14 18" fill="none" xmlns="http://www.w3.org/2000/svg">
<path d="M8.49998 7.49969H3.99998C3.57999 7.49969 3.24998 7.82969 3.24998 8.24969C3.24998 8.66219 3.57999 8.99969 3.99998 8.99969H8.49998C8.91249 8.99969 9.24998 8.66219 9.24998 8.24969C9.24998 7.82969 8.91249 7.49969 8.49998 7.49969ZM5.49998 10.4997H3.99998C3.57999 10.4997 3.24998 10.8297 3.24998 11.2497C3.24998 11.6622 3.57999 11.9997 3.99998 11.9997H5.49998C5.91249 11.9997 6.24999 11.6622 6.24999 11.2497C6.24999 10.8297 5.91249 10.4997 5.49998 10.4997ZM9.99998 4.49969H3.99998C3.57999 4.49969 3.24998 4.82969 3.24998 5.24969C3.24998 5.66219 3.57999 5.99969 3.99998 5.99969H9.99998C10.4125 5.99969 10.75 5.66219 10.75 5.24969C10.75 4.82969 10.4125 4.49969 9.99998 4.49969ZM12.25 5.09969V12.8997C12.25 14.3172 12.22 14.6622 12.085 14.9247C11.935 15.2022 11.71 15.4347 11.425 15.5772C11.155 15.7122 10.8175 15.7347 9.39248 15.7347H4.59248C3.16748 15.7347 2.82248 15.7047 2.55999 15.5697C2.27499 15.4197 2.04248 15.1947 1.89999 14.9097C1.75749 14.6397 1.73499 14.3022 1.73499 12.8772V5.07719C1.73499 3.65219 1.75749 3.30719 1.89249 3.04469C2.03499 2.75969 2.25999 2.52719 2.54499 2.38469C2.80749 2.24219 3.14499 2.21969 4.56999 2.21969H9.36998C10.7875 2.21969 11.1325 2.24219 11.395 2.37719C11.6725 2.51969 11.905 2.74469 12.0475 3.02969C12.1825 3.29219 12.205 3.62969 12.205 5.05469L12.25 5.09969ZM13.75 5.09969C13.75 3.36719 13.7125 2.96219 13.42 2.38469C13.1275 1.81469 12.67 1.35719 12.1075 1.07219C11.53 0.772187 11.1175 0.742188 9.39248 0.742188H4.59248C2.85999 0.742188 2.45499 0.772187 1.87749 1.06469C1.30749 1.34969 0.849985 1.80719 0.564985 2.36969C0.264985 2.93969 0.234985 3.35219 0.234985 5.07719V12.8772C0.234985 14.6022 0.264985 15.0072 0.557485 15.5847C0.842485 16.1472 1.29999 16.6047 1.86249 16.8897C2.43249 17.1822 2.84499 17.2122 4.56999 17.2122H9.36998C11.095 17.2122 11.5 17.1747 12.0775 16.8822C12.64 16.5897 13.0975 16.1322 13.3825 15.5697C13.675 14.9922 13.705 14.5797 13.705 12.8547V5.05469L13.75 5.09969Z" fill="#667085"/>
</svg>