<svg width="18" height="19" viewBox="0 0 18 19" fill="none" xmlns="http://www.w3.org/2000/svg">
<path fill-rule="evenodd" clip-rule="evenodd" d="M6.56903 1.25L10.5 1.25C10.6989 1.25 10.8897 1.32902 11.0303 1.46967L15.5303 5.96967C15.671 6.11032 15.75 6.30109 15.75 6.5V13.431C15.75 14.0347 15.75 14.533 15.7169 14.9389C15.6824 15.3604 15.6085 15.748 15.423 16.112C15.1354 16.6765 14.6765 17.1354 14.112 17.423C13.748 17.6085 13.3604 17.6824 12.9389 17.7169C12.533 17.75 12.0347 17.75 11.431 17.75H6.56901C5.96529 17.75 5.46702 17.75 5.06113 17.7169C4.63956 17.6824 4.25203 17.6085 3.88803 17.423C3.32354 17.1354 2.8646 16.6765 2.57698 16.112C2.39151 15.748 2.31759 15.3604 2.28315 14.9389C2.24998 14.533 2.24999 14.0347 2.25 13.431V5.56903C2.24999 4.9653 2.24998 4.46703 2.28315 4.06113C2.31759 3.63956 2.39151 3.25203 2.57698 2.88803C2.8646 2.32354 3.32354 1.8646 3.88803 1.57698C4.25203 1.39151 4.63956 1.31759 5.06113 1.28315C5.46703 1.24998 5.9653 1.24999 6.56903 1.25ZM5.18328 2.77816C4.85447 2.80503 4.68631 2.85372 4.56902 2.91349C4.28677 3.0573 4.0573 3.28677 3.91349 3.56901C3.85372 3.68631 3.80503 3.85447 3.77816 4.18328C3.75058 4.52085 3.75 4.95757 3.75 5.6V13.4C3.75 14.0424 3.75058 14.4792 3.77816 14.8167C3.80503 15.1455 3.85372 15.3137 3.91349 15.431C4.0573 15.7132 4.28677 15.9427 4.56902 16.0865C4.68631 16.1463 4.85447 16.195 5.18328 16.2218C5.52085 16.2494 5.95757 16.25 6.6 16.25H11.4C12.0424 16.25 12.4792 16.2494 12.8167 16.2218C13.1455 16.195 13.3137 16.1463 13.431 16.0865C13.7132 15.9427 13.9427 15.7132 14.0865 15.431C14.1463 15.3137 14.195 15.1455 14.2218 14.8167C14.2494 14.4792 14.25 14.0424 14.25 13.4V7.25005L11.6761 7.25006C11.4868 7.25008 11.3024 7.2501 11.1463 7.23734C10.9749 7.22334 10.7726 7.19029 10.569 7.08656C10.2868 6.94275 10.0573 6.71328 9.91349 6.43104C9.80977 6.22747 9.77672 6.02517 9.76271 5.85373C9.74995 5.6976 9.74998 5.51326 9.75 5.32397L9.75 2.75H6.6C5.95757 2.75 5.52085 2.75058 5.18328 2.77816ZM11.25 3.81066L13.1894 5.75005H11.7C11.4776 5.75005 11.3559 5.74947 11.2685 5.74233C11.265 5.74204 11.2617 5.74175 11.2586 5.74147C11.2583 5.73835 11.258 5.73506 11.2577 5.73158C11.2506 5.64414 11.25 5.52245 11.25 5.30006V3.81066ZM5.25 7.25C5.25 6.83579 5.58579 6.5 6 6.5H7.5C7.91421 6.5 8.25 6.83579 8.25 7.25C8.25 7.66421 7.91421 8 7.5 8H6C5.58579 8 5.25 7.66421 5.25 7.25ZM5.25 10.25C5.25 9.83579 5.58579 9.5 6 9.5H12C12.4142 9.5 12.75 9.83579 12.75 10.25C12.75 10.6642 12.4142 11 12 11H6C5.58579 11 5.25 10.6642 5.25 10.25ZM5.25 13.25C5.25 12.8358 5.58579 12.5 6 12.5H12C12.4142 12.5 12.75 12.8358 12.75 13.25C12.75 13.6642 12.4142 14 12 14H6C5.58579 14 5.25 13.6642 5.25 13.25Z" fill="#0783BE"/>
</svg>
