<svg width="36" height="36" viewBox="0 0 36 36" fill="none" xmlns="http://www.w3.org/2000/svg">
<g filter="url(#filter0_d_4323_2070)">
<rect x="4" width="28" height="28" rx="6" fill="#DA5A39"/>
</g>
<path d="M24.2586 8.87496L19.3086 6.01663C18.5002 5.54996 17.5002 5.54996 16.6836 6.01663L11.7419 8.87496C10.9336 9.34163 10.4336 10.2083 10.4336 11.15V16.85C10.4336 17.7833 10.9336 18.65 11.7419 19.125L16.6919 21.9833C17.5002 22.45 18.5002 22.45 19.3169 21.9833L24.2669 19.125C25.0752 18.6583 25.5752 17.7916 25.5752 16.85V11.15C25.5669 10.2083 25.0669 9.34996 24.2586 8.87496ZM17.3752 10.4583C17.3752 10.1166 17.6586 9.83329 18.0002 9.83329C18.3419 9.83329 18.6252 10.1166 18.6252 10.4583V14.8333C18.6252 15.175 18.3419 15.4583 18.0002 15.4583C17.6586 15.4583 17.3752 15.175 17.3752 14.8333V10.4583ZM18.7669 17.8583C18.7252 17.9583 18.6669 18.05 18.5919 18.1333C18.4336 18.2916 18.2252 18.375 18.0002 18.375C17.8919 18.375 17.7836 18.35 17.6836 18.3083C17.5752 18.2666 17.4919 18.2083 17.4086 18.1333C17.3336 18.05 17.2752 17.9583 17.2252 17.8583C17.1836 17.7583 17.1669 17.65 17.1669 17.5416C17.1669 17.325 17.2502 17.1083 17.4086 16.95C17.4919 16.875 17.5752 16.8166 17.6836 16.775C17.9919 16.6416 18.3586 16.7166 18.5919 16.95C18.6669 17.0333 18.7252 17.1166 18.7669 17.225C18.8086 17.325 18.8336 17.4333 18.8336 17.5416C18.8336 17.65 18.8086 17.7583 18.7669 17.8583Z" fill="white"/>
<defs>
<filter id="filter0_d_4323_2070" x="0" y="0" width="36" height="36" filterUnits="userSpaceOnUse" color-interpolation-filters="sRGB">
<feFlood flood-opacity="0" result="BackgroundImageFix"/>
<feColorMatrix in="SourceAlpha" type="matrix" values="0 0 0 0 0 0 0 0 0 0 0 0 0 0 0 0 0 0 127 0" result="hardAlpha"/>
<feOffset dy="4"/>
<feGaussianBlur stdDeviation="2"/>
<feComposite in2="hardAlpha" operator="out"/>
<feColorMatrix type="matrix" values="0 0 0 0 0 0 0 0 0 0 0 0 0 0 0 0 0 0 0.04 0"/>
<feBlend mode="normal" in2="BackgroundImageFix" result="effect1_dropShadow_4323_2070"/>
<feBlend mode="normal" in="SourceGraphic" in2="effect1_dropShadow_4323_2070" result="shape"/>
</filter>
</defs>
</svg>
