<svg width="36" height="36" viewBox="0 0 36 36" fill="none" xmlns="http://www.w3.org/2000/svg">
<g filter="url(#filter0_d_4323_2559)">
<rect x="4" width="28" height="28" rx="6" fill="#2D69DA"/>
</g>
<g clip-path="url(#clip0_4323_2559)">
<path d="M17.9999 6C13.58 6 10 9.57996 10 13.9999C10 18.4132 13.58 21.9998 17.9999 21.9998C22.4132 21.9998 25.9998 18.4132 25.9998 13.9999C25.9932 9.57996 22.4132 6 17.9999 6ZM18.1666 9.3333C18.7132 9.3333 19.1666 9.77996 19.1666 10.3333C19.1666 10.88 18.7132 11.3333 18.1666 11.3333C17.6133 11.3333 17.1666 10.88 17.1666 10.3333C17.1666 9.77996 17.6133 9.3333 18.1666 9.3333ZM19.6666 18.3332H16.9999C16.6266 18.3332 16.3333 18.0332 16.3333 17.6666C16.3333 17.2932 16.6266 16.9999 16.9999 16.9999H17.4999C17.5866 16.9999 17.6666 16.9199 17.6666 16.8332V13.8333C17.6666 13.7399 17.5866 13.6666 17.4999 13.6666H16.9999C16.6266 13.6666 16.3333 13.3666 16.3333 12.9999C16.3333 12.6266 16.6266 12.3333 16.9999 12.3333H17.6666C18.3999 12.3333 18.9999 12.9266 18.9999 13.6666V16.8332C18.9999 16.9199 19.0732 16.9999 19.1666 16.9999H19.6666C20.0332 16.9999 20.3332 17.2932 20.3332 17.6666C20.3332 18.0332 20.0332 18.3332 19.6666 18.3332Z" fill="white"/>
</g>
<defs>
<filter id="filter0_d_4323_2559" x="0" y="0" width="36" height="36" filterUnits="userSpaceOnUse" color-interpolation-filters="sRGB">
<feFlood flood-opacity="0" result="BackgroundImageFix"/>
<feColorMatrix in="SourceAlpha" type="matrix" values="0 0 0 0 0 0 0 0 0 0 0 0 0 0 0 0 0 0 127 0" result="hardAlpha"/>
<feOffset dy="4"/>
<feGaussianBlur stdDeviation="2"/>
<feComposite in2="hardAlpha" operator="out"/>
<feColorMatrix type="matrix" values="0 0 0 0 0 0 0 0 0 0 0 0 0 0 0 0 0 0 0.04 0"/>
<feBlend mode="normal" in2="BackgroundImageFix" result="effect1_dropShadow_4323_2559"/>
<feBlend mode="normal" in="SourceGraphic" in2="effect1_dropShadow_4323_2559" result="shape"/>
</filter>
<clipPath id="clip0_4323_2559">
<rect width="16" height="16" fill="white" transform="translate(10 6)"/>
</clipPath>
</defs>
</svg>
