<svg width="22" height="20" viewBox="0 0 22 20" fill="none" xmlns="http://www.w3.org/2000/svg">
    <path d="M12 2.49992C7.85787 2.49992 4.50001 5.85778 4.50001 9.99992C4.50001 10.4602 4.12691 10.8333 3.66668 10.8333C3.20644 10.8333 2.83334 10.4602 2.83334 9.99992C2.83334 4.93731 6.9374 0.833252 12 0.833252C14.6272 0.833252 16.9962 1.93911 18.6667 3.70842V2.49992C18.6667 2.03968 19.0398 1.66659 19.5 1.66659C19.9602 1.66659 20.3333 2.03968 20.3333 2.49992V5.83325C20.3333 6.29349 19.9602 6.66658 19.5 6.66658H16.1667C15.7064 6.66658 15.3333 6.29349 15.3333 5.83325C15.3333 5.37301 15.7064 4.99992 16.1667 4.99992H17.5903C16.2161 3.46441 14.2207 2.49992 12 2.49992Z" fill="#0783BE"/>
    <path d="M20.3333 9.16658C20.7936 9.16658 21.1667 9.53968 21.1667 9.99992C21.1667 15.0625 17.0626 19.1666 12 19.1666C9.37279 19.1666 7.0038 18.0607 5.33334 16.2914V17.4999C5.33334 17.9602 4.96025 18.3333 4.50001 18.3333C4.03977 18.3333 3.66668 17.9602 3.66668 17.4999V14.1666C3.66668 13.7063 4.03977 13.3333 4.50001 13.3333H7.83334C8.29358 13.3333 8.66668 13.7063 8.66668 14.1666C8.66668 14.6268 8.29358 14.9999 7.83334 14.9999H6.40969C7.78393 16.5354 9.7793 17.4999 12 17.4999C16.1421 17.4999 19.5 14.1421 19.5 9.99992C19.5 9.53968 19.8731 9.16658 20.3333 9.16658Z" fill="#0783BE"/>
</svg>
