<svg width="14" height="14" viewBox="0 0 14 14" fill="none" xmlns="http://www.w3.org/2000/svg">
<path d="M13.4671 12.5262L11.1338 10.1928C10.8671 9.92617 10.4471 9.92617 10.1871 10.1862C9.92048 10.4462 9.92048 10.8662 10.1805 11.1262L12.5071 13.4595C12.7671 13.7195 13.1871 13.7195 13.4471 13.4595C13.7071 13.1928 13.7071 12.7728 13.4471 12.5128L13.4671 12.5262ZM11.6605 6.65951C11.6605 9.41951 9.42048 11.6595 6.66048 11.6595C3.89382 11.6595 1.66048 9.41951 1.66048 6.65951C1.66048 3.89284 3.89382 1.65951 6.66048 1.65951C9.42048 1.65951 11.6605 3.89284 11.6605 6.65951ZM12.9938 6.65951C12.9938 3.15951 10.1538 0.326172 6.66048 0.326172C3.16048 0.326172 0.327148 3.15951 0.327148 6.65951C0.327148 10.1528 3.16048 12.9928 6.66048 12.9928C10.1538 12.9928 12.9938 10.1528 12.9938 6.65951Z" fill="#98A2B3"/>
</svg>
