<svg width="32" height="32" viewBox="0 0 32 32" fill="none" xmlns="http://www.w3.org/2000/svg">
<rect width="32" height="32" rx="16" fill="url(#paint0_linear_1035_74469)"/>
<rect x="0.5" y="0.5" width="31" height="31" rx="15.5" stroke="white" stroke-opacity="0.24"/>
<g clip-path="url(#clip0_1035_74469)">
<path d="M14.54 13C13.7116 13 13.04 13.6716 13.04 14.5C13.04 14.9142 12.7043 15.25 12.29 15.25C11.8758 15.25 11.54 14.9142 11.54 14.5C11.54 12.8431 12.8832 11.5 14.54 11.5C14.9543 11.5 15.29 11.8358 15.29 12.25C15.29 12.6642 14.9543 13 14.54 13Z" fill="white"/>
<path fill-rule="evenodd" clip-rule="evenodd" d="M8.54004 14.875C8.54004 11.3542 11.3942 8.5 14.915 8.5C18.4359 8.5 21.29 11.3542 21.29 14.875C21.29 16.3652 20.7788 17.7359 19.9221 18.8214L23.3204 22.2197C23.6133 22.5126 23.6133 22.9874 23.3204 23.2803C23.0275 23.5732 22.5526 23.5732 22.2597 23.2803L18.8614 19.882C17.7759 20.7387 16.4052 21.25 14.915 21.25C11.3942 21.25 8.54004 18.3958 8.54004 14.875ZM14.915 10C12.2227 10 10.04 12.1826 10.04 14.875C10.04 17.5674 12.2227 19.75 14.915 19.75C17.6074 19.75 19.79 17.5674 19.79 14.875C19.79 12.1826 17.6074 10 14.915 10Z" fill="white"/>
</g>
<defs>
<linearGradient id="paint0_linear_1035_74469" x1="5.5" y1="6" x2="37" y2="37.5" gradientUnits="userSpaceOnUse">
<stop stop-color="#0076DC"/>
<stop offset="1" stop-color="#0076DC" stop-opacity="0.2"/>
</linearGradient>
<clipPath id="clip0_1035_74469">
<rect width="16" height="16" fill="white" transform="translate(8 8)"/>
</clipPath>
</defs>
</svg>
