<svg width="24" height="24" viewBox="0 0 24 24" fill="none" xmlns="http://www.w3.org/2000/svg">
<path d="M15.0261 5.10866C15.1962 4.69804 15.7774 4.69684 15.9492 5.10674L17.9206 9.81058C17.9715 9.93194 18.0681 10.0284 18.1896 10.0789L22.744 11.9747C23.17 12.152 23.149 12.7625 22.7118 12.9101L18.2215 14.4253C18.0811 14.4726 17.969 14.5798 17.9153 14.7179L15.9541 19.7643C15.7885 20.1904 15.1852 20.1892 15.0213 19.7625L13.0844 14.7198C13.031 14.5806 12.9182 14.4725 12.7768 14.4251L8.26574 12.9103C7.82756 12.7631 7.80652 12.1512 8.23355 11.9743L12.8087 10.0793C12.9312 10.0285 13.0285 9.93117 13.0793 9.80866L15.0261 5.10866Z" fill="url(#paint0_linear_3568_25111)"/>
<path d="M5.78344 4.10866C5.95353 3.69804 6.53473 3.69684 6.70652 4.10674L7.42061 5.81058C7.47148 5.93194 7.56813 6.02836 7.68961 6.07892L9.25872 6.73207C9.68472 6.90939 9.66365 7.5199 9.22644 7.66743L7.7215 8.17526C7.58113 8.22263 7.46899 8.32981 7.41532 8.46789L6.71145 10.2791C6.54587 10.7051 5.94256 10.7039 5.77866 10.2772L5.08441 8.46977C5.03095 8.33059 4.91817 8.22252 4.77682 8.17506L3.2657 7.66764C2.82753 7.5205 2.80649 6.90859 3.23352 6.73171L4.80866 6.07926C4.93117 6.02851 5.02851 5.93117 5.07926 5.80866L5.78344 4.10866Z" fill="url(#paint1_linear_3568_25111)"/>
<path d="M5.46123 14.8869C5.5973 14.5584 6.06225 14.5575 6.19969 14.8854L6.60332 15.8485C6.64401 15.9456 6.72133 16.0227 6.81852 16.0631L7.67577 16.42C8.01656 16.5618 7.99971 17.0502 7.64994 17.1683L6.84403 17.4402C6.73173 17.4781 6.64202 17.5638 6.59909 17.6743L6.20363 18.6919C6.07117 19.0327 5.58852 19.0318 5.4574 18.6904L5.06769 17.6758C5.02492 17.5645 4.9347 17.478 4.82162 17.44L4.01272 17.1684C3.66218 17.0507 3.64535 16.5612 3.98697 16.4197L4.84709 16.0634C4.9451 16.0228 5.02297 15.9449 5.06357 15.8469L5.46123 14.8869Z" fill="url(#paint2_linear_3568_25111)"/>
<defs>
<linearGradient id="paint0_linear_3568_25111" x1="11.3488" y1="8.13658" x2="19.8581" y2="16.5457" gradientUnits="userSpaceOnUse">
<stop stop-color="#3E8BFF"/>
<stop offset="1" stop-color="#A45CFF"/>
</linearGradient>
<linearGradient id="paint1_linear_3568_25111" x1="4.17439" y1="5.06829" x2="8.42905" y2="9.27285" gradientUnits="userSpaceOnUse">
<stop stop-color="#3E8BFF"/>
<stop offset="1" stop-color="#A45CFF"/>
</linearGradient>
<linearGradient id="paint2_linear_3568_25111" x1="4.44975" y1="15.3789" x2="7.2862" y2="18.1819" gradientUnits="userSpaceOnUse">
<stop stop-color="#3E8BFF"/>
<stop offset="1" stop-color="#A45CFF"/>
</linearGradient>
</defs>
</svg>
