<svg width="36" height="36" viewBox="0 0 36 36" fill="none" xmlns="http://www.w3.org/2000/svg">
<g filter="url(#filter0_d_4323_2299)">
<rect x="4" width="28" height="28" rx="6" fill="#52AA59"/>
</g>
<g clip-path="url(#clip0_4323_2299)">
<mask id="mask0_4323_2299" style="mask-type:alpha" maskUnits="userSpaceOnUse" x="10" y="6" width="16" height="16">
<path d="M18 22C22.4183 22 26 18.4183 26 14C26 9.58172 22.4183 6 18 6C13.5817 6 10 9.58172 10 14C10 18.4183 13.5817 22 18 22Z" fill="white"/>
</mask>
<g mask="url(#mask0_4323_2299)">
<path d="M18 22C22.4183 22 26 18.4183 26 14C26 9.58172 22.4183 6 18 6C13.5817 6 10 9.58172 10 14C10 18.4183 13.5817 22 18 22Z" fill="white"/>
<path d="M15 14.2427L17 16.2427" stroke="#52AA59" stroke-width="2" stroke-linecap="round" stroke-linejoin="round"/>
<path d="M17 16.2426L21.2426 12" stroke="#52AA59" stroke-width="2" stroke-linecap="round" stroke-linejoin="round"/>
</g>
</g>
<defs>
<filter id="filter0_d_4323_2299" x="0" y="0" width="36" height="36" filterUnits="userSpaceOnUse" color-interpolation-filters="sRGB">
<feFlood flood-opacity="0" result="BackgroundImageFix"/>
<feColorMatrix in="SourceAlpha" type="matrix" values="0 0 0 0 0 0 0 0 0 0 0 0 0 0 0 0 0 0 127 0" result="hardAlpha"/>
<feOffset dy="4"/>
<feGaussianBlur stdDeviation="2"/>
<feComposite in2="hardAlpha" operator="out"/>
<feColorMatrix type="matrix" values="0 0 0 0 0 0 0 0 0 0 0 0 0 0 0 0 0 0 0.04 0"/>
<feBlend mode="normal" in2="BackgroundImageFix" result="effect1_dropShadow_4323_2299"/>
<feBlend mode="normal" in="SourceGraphic" in2="effect1_dropShadow_4323_2299" result="shape"/>
</filter>
<clipPath id="clip0_4323_2299">
<rect width="16" height="16" fill="white" transform="translate(10 6)"/>
</clipPath>
</defs>
</svg>
