<svg width="106" height="20" viewBox="0 0 106 20" fill="none" xmlns="http://www.w3.org/2000/svg">
<g clip-path="url(#clip0_1035_74520)">
<mask id="mask0_1035_74520" style="mask-type:luminance" maskUnits="userSpaceOnUse" x="0" y="0" width="106" height="20">
<path d="M106 0H0.822144V20H106V0Z" fill="white"/>
</mask>
<g mask="url(#mask0_1035_74520)">
<path d="M103.647 6.31402C103.647 6.08131 103.716 5.85384 103.845 5.66035C103.974 5.46687 104.158 5.31606 104.373 5.22701C104.588 5.13796 104.825 5.11466 105.053 5.16006C105.281 5.20546 105.491 5.31751 105.655 5.48206C105.82 5.64661 105.932 5.85625 105.977 6.08448C106.023 6.31271 105.999 6.54928 105.91 6.76427C105.821 6.97926 105.671 7.16301 105.477 7.29229C105.284 7.42158 105.056 7.49058 104.823 7.49058C104.668 7.49347 104.514 7.46501 104.37 7.4069C104.226 7.34879 104.095 7.26224 103.985 7.1524C103.875 7.04257 103.789 6.91171 103.731 6.76766C103.672 6.62361 103.644 6.46932 103.647 6.31402ZM105.804 6.31402C105.804 6.12011 105.746 5.93057 105.639 5.76935C105.531 5.60812 105.378 5.48246 105.199 5.40826C105.019 5.33406 104.822 5.31464 104.632 5.35247C104.442 5.3903 104.267 5.48367 104.13 5.62078C103.993 5.75789 103.9 5.93258 103.862 6.12275C103.824 6.31293 103.843 6.51005 103.918 6.68919C103.992 6.86833 104.118 7.02145 104.279 7.12917C104.44 7.2369 104.63 7.2944 104.823 7.2944C104.953 7.299 105.083 7.2768 105.204 7.22916C105.325 7.18152 105.435 7.10947 105.527 7.0175C105.619 6.92553 105.691 6.8156 105.739 6.69457C105.786 6.57354 105.808 6.444 105.804 6.31402ZM104.431 6.98072C104.392 6.98072 104.392 6.98072 104.392 6.94138V5.72547C104.392 5.68613 104.392 5.68613 104.431 5.68613H104.902C104.957 5.67899 105.013 5.68392 105.065 5.70056C105.118 5.7172 105.167 5.74516 105.208 5.78249C105.249 5.81982 105.281 5.86564 105.303 5.91675C105.325 5.96787 105.335 6.02306 105.333 6.07849C105.338 6.16077 105.314 6.24224 105.263 6.30736C105.212 6.37248 105.14 6.41668 105.058 6.43151L105.333 6.94138C105.372 6.98072 105.333 7.02006 105.293 7.02006H105.176C105.137 7.02006 105.137 6.98072 105.097 6.98072L104.823 6.47086H104.551V6.94138C104.551 6.94658 104.55 6.95176 104.548 6.9566C104.546 6.96144 104.543 6.96584 104.54 6.96952C104.536 6.9732 104.531 6.9761 104.527 6.97802C104.522 6.97995 104.517 6.98086 104.511 6.98072H104.433H104.431ZM105.136 6.04127C105.136 5.92378 105.057 5.84509 104.9 5.84509H104.586V6.23746H104.9C105.058 6.23533 105.136 6.15718 105.136 6.04127Z" fill="#002838"/>
<path d="M34.5873 15.1375C34.4698 15.1375 34.4278 15.0981 34.3912 14.978L32.7834 9.2892H32.7441L31.1363 14.978C31.097 15.0955 31.0576 15.1375 30.9401 15.1375H29.0575C28.94 15.1375 28.898 15.0981 28.8614 14.978L26.1164 5.09706C26.1164 5.01837 26.1164 4.93756 26.2339 4.93756H28.7045C28.7517 4.9328 28.7988 4.94691 28.8355 4.9768C28.8723 5.00669 28.8957 5.04993 28.9007 5.09706L30.1948 11.0198H30.2341L31.8052 5.09706C31.8445 4.97956 31.8838 4.93756 32.0013 4.93756H33.5309C33.6484 4.93756 33.6904 4.9769 33.7271 5.09706L35.3753 11.0187H35.4146L36.6656 5.09706C36.6706 5.04993 36.694 5.00669 36.7308 4.9768C36.7675 4.94691 36.8146 4.9328 36.8618 4.93756H39.3324C39.4111 4.93756 39.4499 5.01624 39.4499 5.09706L36.7049 14.9806C36.6656 15.0981 36.6263 15.1401 36.5088 15.1401H34.5873V15.1375ZM41.4112 15.1375C41.3696 15.1353 41.3303 15.1178 41.3008 15.0883C41.2714 15.0589 41.2539 15.0196 41.2517 14.978V5.09706C41.2539 5.05546 41.2714 5.01614 41.3008 4.98669C41.3303 4.95724 41.3696 4.93974 41.4112 4.93756H45.4896C47.9602 4.93756 49.2543 6.34912 49.2543 8.31041C49.2543 10.2717 47.9602 11.7221 45.4896 11.7221H44.0009C43.9222 11.7221 43.9222 11.7614 43.9222 11.8008V14.9376C43.9201 14.9792 43.9026 15.0185 43.8731 15.0479C43.8436 15.0774 43.8043 15.0949 43.7627 15.0971H41.4107L41.4112 15.1375ZM46.6268 8.35294C46.6268 7.6469 46.1563 7.21572 45.3327 7.21572H43.9988C43.9201 7.21572 43.9201 7.25507 43.9201 7.29441V9.41201C43.9201 9.4907 43.9594 9.4907 43.9988 9.4907H45.3322C45.4941 9.51289 45.6589 9.5 45.8153 9.45291C45.9718 9.40581 46.1163 9.32561 46.239 9.21774C46.3618 9.10987 46.4599 8.97687 46.5267 8.82775C46.5935 8.67862 46.6275 8.51688 46.6263 8.35348L46.6268 8.35294ZM52.7446 12.6275C52.508 11.7997 52.4152 10.9374 52.4703 10.0782C52.4385 9.21964 52.5309 8.36101 52.7446 7.52887C52.9804 6.82086 53.433 6.20501 54.0383 5.76859C54.6436 5.33217 55.371 5.09732 56.1172 5.09732C56.8634 5.09732 57.5907 5.33217 58.1961 5.76859C58.8014 6.20501 59.254 6.82086 59.4898 7.52887C59.7206 8.30415 59.8135 9.11394 59.7641 9.92134C59.7641 10.0388 59.6854 10.1175 59.5286 10.1175H53.1364C53.0578 10.1175 53.0189 10.1962 53.0189 10.277C52.9862 11.0038 53.0656 11.7314 53.2545 12.434C53.4264 13.0684 53.8141 13.6231 54.351 14.0025C54.8878 14.3818 55.5402 14.5621 56.1956 14.5122C56.7535 14.5301 57.3077 14.415 57.8123 14.1762C58.3169 13.9375 58.7574 13.5822 59.0974 13.1395C59.1095 13.115 59.1274 13.0939 59.1494 13.0778C59.1715 13.0618 59.1972 13.0514 59.2242 13.0475C59.2512 13.0437 59.2788 13.0464 59.3045 13.0556C59.3302 13.0648 59.3533 13.08 59.3718 13.1001L59.4893 13.2176C59.5137 13.2297 59.5349 13.2476 59.5509 13.2697C59.5669 13.2918 59.5773 13.3174 59.5812 13.3444C59.5851 13.3715 59.5823 13.399 59.5731 13.4247C59.564 13.4504 59.5487 13.4735 59.5286 13.492C59.1518 14.0083 58.6544 14.4247 58.0799 14.7049C57.5054 14.9851 56.8712 15.1206 56.2323 15.0997C55.4542 15.1569 54.6804 14.9417 54.0436 14.4909C53.4068 14.0402 52.9466 13.3819 52.7419 12.6291L52.7446 12.6275ZM59.0974 9.56885C59.1133 9.57063 59.1293 9.56881 59.1444 9.56353C59.1595 9.55825 59.1731 9.54965 59.1844 9.53837C59.1957 9.52708 59.2043 9.5134 59.2096 9.49834C59.2149 9.48327 59.2167 9.46722 59.2149 9.45135C59.2278 8.88019 59.1483 8.3107 58.9794 7.76493C58.8198 7.1465 58.4517 6.60206 57.9373 6.22345C57.4229 5.84485 56.7937 5.65526 56.1557 5.68667C55.5162 5.64742 54.8831 5.83399 54.3671 6.21381C53.851 6.59364 53.4847 7.14261 53.3321 7.76493C53.1603 8.31004 53.0807 8.88002 53.0966 9.45135C53.0948 9.46722 53.0966 9.48327 53.1019 9.49834C53.1072 9.5134 53.1158 9.52708 53.127 9.53837C53.1383 9.54965 53.152 9.55825 53.1671 9.56353C53.1821 9.56881 53.1982 9.57063 53.2141 9.56885H59.0974ZM68.8619 14.9025C68.8357 14.9041 68.8095 14.9001 68.7849 14.8909C68.7604 14.8816 68.7381 14.8672 68.7195 14.8486C68.701 14.8301 68.6866 14.8078 68.6773 14.7833C68.668 14.7587 68.6641 14.7325 68.6657 14.7063V8.97818C68.6657 6.70373 67.7247 5.72335 65.8814 5.72335C65.4875 5.70722 65.0945 5.77358 64.7278 5.91818C64.361 6.06278 64.0285 6.28244 63.7516 6.56306C63.4747 6.84368 63.2595 7.17907 63.1197 7.54773C62.98 7.91639 62.9189 8.31017 62.9403 8.70384V14.7456C62.9419 14.7718 62.9379 14.7981 62.9287 14.8226C62.9194 14.8471 62.905 14.8694 62.8864 14.888C62.8679 14.9065 62.8456 14.9209 62.821 14.9302C62.7965 14.9395 62.7703 14.9434 62.7441 14.9418H62.5479C62.5217 14.9434 62.4955 14.9395 62.4709 14.9302C62.4464 14.9209 62.4241 14.9065 62.4055 14.888C62.387 14.8694 62.3726 14.8471 62.3633 14.8226C62.354 14.7981 62.3501 14.7718 62.3517 14.7456V5.56917C62.3501 5.54298 62.354 5.51675 62.3633 5.4922C62.3726 5.46766 62.387 5.44537 62.4055 5.42682C62.4241 5.40827 62.4464 5.39387 62.4709 5.38459C62.4955 5.37531 62.5217 5.37135 62.5479 5.37299H62.7441C62.7703 5.37135 62.7965 5.37531 62.821 5.38459C62.8456 5.39387 62.8679 5.40827 62.8864 5.42682C62.905 5.44537 62.9194 5.46766 62.9287 5.4922C62.9379 5.51675 62.9419 5.54298 62.9403 5.56917V6.9047H62.9796C63.2362 6.34946 63.6539 5.88425 64.1785 5.56955C64.703 5.25486 65.3101 5.10523 65.9207 5.14012C68.0777 5.14012 69.2936 6.35603 69.2936 8.82665V14.7063C69.2952 14.7325 69.2913 14.7587 69.282 14.7833C69.2727 14.8078 69.2583 14.8301 69.2398 14.8486C69.2212 14.8672 69.1989 14.8816 69.1744 14.8909C69.1498 14.9001 69.1236 14.9041 69.0974 14.9025H68.8619ZM72.1582 17.3731C72.0795 17.2556 72.0795 17.1376 72.1975 17.0988L72.357 16.9813C72.4745 16.9026 72.5532 16.9419 72.6314 17.0599C72.9345 17.4395 73.3241 17.7408 73.7677 17.9386C74.2113 18.1365 74.6958 18.2252 75.1807 18.1972C76.9846 18.1972 78.1612 17.2933 78.1612 14.9423V13.3335H78.1218C77.6513 14.3926 76.8278 15.1375 75.1413 15.1375C74.4331 15.1713 73.7342 14.9651 73.1577 14.5523C72.5812 14.1396 72.1609 13.5444 71.9647 12.863C71.713 11.9842 71.607 11.07 71.651 10.1569C71.6268 9.24451 71.7324 8.33335 71.9647 7.45072C72.1607 6.77049 72.5802 6.17616 73.1555 5.7636C73.7308 5.35105 74.4283 5.14433 75.1355 5.17681C76.8219 5.17681 77.6455 5.92113 78.116 6.98073H78.1553V5.60798C78.1537 5.58179 78.1576 5.55556 78.1669 5.53101C78.1762 5.50647 78.1906 5.48418 78.2091 5.46563C78.2277 5.44708 78.25 5.43268 78.2745 5.4234C78.2991 5.41412 78.3253 5.41016 78.3515 5.4118H78.5477C78.5739 5.41016 78.6001 5.41412 78.6246 5.4234C78.6492 5.43268 78.6715 5.44708 78.69 5.46563C78.7086 5.48418 78.723 5.50647 78.7323 5.53101C78.7415 5.55556 78.7455 5.58179 78.7439 5.60798V14.9806C78.7439 17.6081 77.3323 18.7847 75.136 18.7847C74.5642 18.7963 73.9975 18.6748 73.4807 18.4299C72.9639 18.1849 72.5112 17.8231 72.1582 17.3731ZM77.8836 12.628C78.1096 11.8116 78.2022 10.964 78.158 10.1181C78.1995 9.27217 78.1069 8.42504 77.8836 7.60809C77.7288 7.02946 77.3787 6.52212 76.8928 6.17196C76.4068 5.82181 75.8147 5.65037 75.2168 5.68667C74.6285 5.6472 74.0448 5.81339 73.5655 6.1568C73.0862 6.50022 72.7411 6.99952 72.5894 7.56928C72.3549 8.38452 72.249 9.23137 72.2757 10.0792C72.249 10.9271 72.3549 11.774 72.5894 12.5892C72.7462 13.1561 73.0924 13.6521 73.5705 13.9947C74.0486 14.3372 74.6297 14.5056 75.2168 14.4718C75.8101 14.5465 76.41 14.3997 76.9017 14.0595C77.3934 13.7192 77.7423 13.2095 77.8815 12.628H77.8836ZM82.0407 2.3925C82.0145 2.39413 81.9883 2.39018 81.9637 2.3809C81.9392 2.37162 81.9169 2.35722 81.8983 2.33867C81.8798 2.32011 81.8654 2.29783 81.8561 2.27328C81.8468 2.24874 81.8429 2.22251 81.8445 2.19632V1.41212C81.8429 1.38593 81.8468 1.35969 81.8561 1.33515C81.8654 1.31061 81.8798 1.28832 81.8983 1.26977C81.9169 1.25121 81.9392 1.23682 81.9637 1.22754C81.9883 1.21826 82.0145 1.2143 82.0407 1.21594H82.5112C82.5374 1.2143 82.5636 1.21826 82.5882 1.22754C82.6127 1.23682 82.635 1.25121 82.6536 1.26977C82.6721 1.28832 82.6865 1.31061 82.6958 1.33515C82.7051 1.35969 82.709 1.38593 82.7074 1.41212V2.23566C82.709 2.26185 82.7051 2.28808 82.6958 2.31263C82.6865 2.33717 82.6721 2.35946 82.6536 2.37801C82.635 2.39657 82.6127 2.41096 82.5882 2.42024C82.5636 2.42952 82.5374 2.43348 82.5112 2.43184H82.0407V2.3925ZM82.2002 14.9025C82.174 14.9041 82.1478 14.9001 82.1232 14.8909C82.0987 14.8816 82.0764 14.8672 82.0578 14.8486C82.0393 14.8301 82.0249 14.8078 82.0156 14.7833C82.0063 14.7587 82.0024 14.7325 82.004 14.7063V5.56917C82.0024 5.54298 82.0063 5.51675 82.0156 5.4922C82.0249 5.46766 82.0393 5.44537 82.0578 5.42682C82.0764 5.40827 82.0987 5.39387 82.1232 5.38459C82.1478 5.37531 82.174 5.37135 82.2002 5.37299H82.3964C82.4226 5.37135 82.4488 5.37531 82.4733 5.38459C82.4979 5.39387 82.5202 5.40827 82.5387 5.42682C82.5573 5.44537 82.5717 5.46766 82.581 5.4922C82.5902 5.51675 82.5942 5.54298 82.5926 5.56917V14.7063C82.5942 14.7325 82.5902 14.7587 82.581 14.7833C82.5717 14.8078 82.5573 14.8301 82.5387 14.8486C82.5202 14.8672 82.4979 14.8816 82.4733 14.8909C82.4488 14.9001 82.4226 14.9041 82.3964 14.9025H82.2002ZM92.3549 14.9025C92.3287 14.9041 92.3025 14.9001 92.2779 14.8909C92.2534 14.8816 92.2311 14.8672 92.2125 14.8486C92.194 14.8301 92.1796 14.8078 92.1703 14.7833C92.161 14.7587 92.1571 14.7325 92.1587 14.7063V8.97818C92.1587 6.70373 91.2177 5.72335 89.3744 5.72335C88.9805 5.70722 88.5876 5.77358 88.2208 5.91818C87.854 6.06278 87.5215 6.28244 87.2446 6.56306C86.9677 6.84368 86.7525 7.17907 86.6127 7.54773C86.473 7.91639 86.4119 8.31017 86.4333 8.70384V14.7456C86.4349 14.7718 86.4309 14.7981 86.4217 14.8226C86.4124 14.8471 86.398 14.8694 86.3794 14.888C86.3609 14.9065 86.3386 14.9209 86.314 14.9302C86.2895 14.9395 86.2633 14.9434 86.2371 14.9418H86.0409C86.0147 14.9434 85.9885 14.9395 85.9639 14.9302C85.9394 14.9209 85.9171 14.9065 85.8985 14.888C85.88 14.8694 85.8656 14.8471 85.8563 14.8226C85.847 14.7981 85.8431 14.7718 85.8447 14.7456V5.56917C85.8431 5.54298 85.847 5.51675 85.8563 5.4922C85.8656 5.46766 85.88 5.44537 85.8985 5.42682C85.9171 5.40827 85.9394 5.39387 85.9639 5.38459C85.9885 5.37531 86.0147 5.37135 86.0409 5.37299H86.2371C86.2633 5.37135 86.2895 5.37531 86.314 5.38459C86.3386 5.39387 86.3609 5.40827 86.3794 5.42682C86.398 5.44537 86.4124 5.46766 86.4217 5.4922C86.4309 5.51675 86.4349 5.54298 86.4333 5.56917V6.9047H86.4726C86.7292 6.34946 87.147 5.88425 87.6715 5.56955C88.196 5.25486 88.8031 5.10523 89.4138 5.14012C91.5707 5.14012 92.7866 6.35603 92.7866 8.82665V14.7063C92.7882 14.7325 92.7843 14.7587 92.775 14.7833C92.7657 14.8078 92.7513 14.8301 92.7328 14.8486C92.7142 14.8672 92.6919 14.8816 92.6674 14.8909C92.6429 14.9001 92.6166 14.9041 92.5904 14.9025H92.3549ZM95.4529 12.628C95.2163 11.8002 95.1235 10.9379 95.1785 10.0787C95.1468 9.22017 95.2392 8.36154 95.4529 7.5294C95.6887 6.82139 96.1413 6.20554 96.7466 5.76912C97.3519 5.3327 98.0792 5.09785 98.8255 5.09785C99.5717 5.09785 100.299 5.3327 100.904 5.76912C101.51 6.20554 101.962 6.82139 102.198 7.5294C102.429 8.30468 102.522 9.11447 102.472 9.92188C102.472 10.0394 102.394 10.1181 102.237 10.1181H95.8426C95.7639 10.1181 95.7251 10.1967 95.7251 10.2776C95.6923 11.0044 95.7718 11.7319 95.9606 12.4345C96.1325 13.069 96.5203 13.6236 97.0571 14.003C97.594 14.3823 98.2463 14.5626 98.9018 14.5128C99.4597 14.5307 100.014 14.4155 100.518 14.1768C101.023 13.9381 101.464 13.5827 101.804 13.14C101.816 13.1155 101.833 13.0944 101.856 13.0784C101.878 13.0623 101.903 13.0519 101.93 13.0481C101.957 13.0442 101.985 13.047 102.011 13.0561C102.036 13.0653 102.059 13.0806 102.078 13.1007L102.195 13.2182C102.22 13.2302 102.241 13.2481 102.257 13.2702C102.273 13.2923 102.283 13.318 102.287 13.345C102.291 13.372 102.288 13.3995 102.279 13.4252C102.27 13.4509 102.255 13.474 102.235 13.4925C101.858 14.0088 101.361 14.4252 100.786 14.7054C100.212 14.9856 99.5773 15.1212 98.9385 15.1002C97.1739 15.1002 95.958 14.2767 95.4481 12.6296L95.4529 12.628ZM101.767 9.56938C101.783 9.57116 101.799 9.56934 101.814 9.56406C101.829 9.55879 101.843 9.55018 101.854 9.5389C101.865 9.52761 101.874 9.51393 101.879 9.49887C101.884 9.48381 101.886 9.46775 101.884 9.45189C101.897 8.88072 101.818 8.31123 101.649 7.76546C101.489 7.14703 101.121 6.60259 100.607 6.22399C100.092 5.84538 99.4631 5.65579 98.8252 5.6872C98.1856 5.64795 97.5526 5.83452 97.0365 6.21434C96.5205 6.59417 96.1542 7.14314 96.0015 7.76546C95.8297 8.31058 95.7501 8.88055 95.766 9.45189C95.7643 9.46775 95.7661 9.48381 95.7713 9.49887C95.7766 9.51393 95.7852 9.52761 95.7965 9.5389C95.8078 9.55018 95.8215 9.55879 95.8365 9.56406C95.8516 9.56934 95.8677 9.57116 95.8835 9.56938H101.767Z" fill="#002838"/>
<path d="M7.60666 20H14.0398V15.1374L12.4714 13.569H9.13784L7.60826 15.1374L7.60666 20ZM15.9213 6.78452L14.3917 8.31411V11.687L15.9213 13.216H20.8232V6.78292L15.9213 6.78452ZM14.0382 0H7.60507V4.90191L9.13572 6.43309H12.4692L14.0376 4.9035L14.0382 0ZM20.8221 20V15.1374L19.2926 13.569H14.3906V20.0021L20.8221 20ZM2.35173 0L0.822144 1.52959V6.43309H7.25523V0H2.35173ZM14.3912 0V4.90191L15.9213 6.43309H20.8232V0H14.3912ZM10.8221 10.9416C10.6434 10.9416 10.4686 10.8886 10.32 10.7892C10.1714 10.6899 10.0555 10.5488 9.98712 10.3836C9.91871 10.2185 9.90081 10.0367 9.93569 9.86142C9.97056 9.6861 10.0566 9.52505 10.183 9.39865C10.3094 9.27225 10.4705 9.18617 10.6458 9.15129C10.8211 9.11642 11.0029 9.13432 11.168 9.20272C11.3332 9.27113 11.4743 9.38698 11.5736 9.53561C11.673 9.68424 11.726 9.85899 11.726 10.0377C11.7237 10.2768 11.6278 10.5054 11.4588 10.6744C11.2898 10.8434 11.0612 10.9394 10.8221 10.9416ZM7.25523 6.78452H0.822144V13.2176H5.68471L7.25311 11.688L7.25523 6.78452ZM7.25523 15.1374L5.68684 13.569H0.822144V20.0021H5.68471L7.25311 18.4725L7.25523 15.1374Z" fill="#0ECAD4"/>
</g>
</g>
<defs>
<clipPath id="clip0_1035_74520">
<rect width="105.178" height="20" fill="white" transform="translate(0.822144)"/>
</clipPath>
</defs>
</svg>
